<?xml version="1.0" encoding="utf-8"?>
<!-- Generator: Adobe Illustrator 24.0.0, SVG Export Plug-In . SVG Version: 6.00 Build 0)  -->
<svg version="1.1" id="Layer_1" xmlns="http://www.w3.org/2000/svg" xmlns:xlink="http://www.w3.org/1999/xlink" x="0px" y="0px"
	 viewBox="0 0 358.73 399.72" style="enable-background:new 0 0 358.73 399.72;" xml:space="preserve">
<style type="text/css">
	.st0{fill:#FFCA28;}
	.st1{fill:#37474F;}
	.st2{fill:#26C6DA;}
	.st3{fill:#EEEEEE;}
	.st4{fill:#FF7043;}
	.st5{fill:#BDBDBD;}
	.st6{fill:#FFA000;}
	.st7{fill:#FFE082;}
</style>
<g>
	<g>
		<path class="st0" d="M277.9,144.45c-5.2,12.13-17.13,20-30.32,20H111.15c-13.2,0-25.13-7.87-30.32-20L52.8,79.04
			c-2,2.84-3.18,6.31-3.18,10.05v289.64c0,9.65,7.83,17.48,17.48,17.48h224.54c9.65,0,17.48-7.83,17.48-17.48V89.1
			c0-3.74-1.18-7.21-3.18-10.05L277.9,144.45z"/>
		<path class="st1" d="M291.64,399.72H67.09c-11.57,0-20.98-9.41-20.98-20.98V89.1c0-4.35,1.32-8.52,3.82-12.07
			c0.73-1.04,1.98-1.6,3.23-1.46c1.26,0.13,2.35,0.94,2.85,2.1l28.03,65.41c4.65,10.86,15.29,17.87,27.11,17.87h136.42
			c11.81,0,22.45-7.02,27.11-17.87c0,0,0,0,0,0l28.03-65.41c0.5-1.17,1.59-1.97,2.85-2.1c1.25-0.13,2.49,0.43,3.23,1.46
			c2.5,3.55,3.82,7.72,3.82,12.07v289.64C312.62,390.31,303.21,399.72,291.64,399.72z M53.12,88.68c0,0.14-0.01,0.28-0.01,0.42
			v289.64c0,7.71,6.27,13.98,13.98,13.98h224.54c7.71,0,13.98-6.27,13.98-13.98V89.1c0-0.14,0-0.28-0.01-0.42l-24.49,57.15
			c-5.76,13.44-18.92,22.12-33.54,22.12H111.15c-14.62,0-27.78-8.68-33.54-22.12L53.12,88.68z"/>
	</g>
	<g>
		<path class="st0" d="M111.15,164.45h136.43c13.2,0,25.13-7.87,30.32-20l28.03-65.41c-3.16-4.49-8.39-7.43-14.3-7.43H67.09
			c-5.91,0-11.13,2.94-14.3,7.43l28.03,65.41C86.03,156.58,97.96,164.45,111.15,164.45z"/>
		<path class="st1" d="M247.58,167.95H111.15c-14.62,0-27.78-8.68-33.54-22.12L49.58,80.42c-0.48-1.12-0.34-2.4,0.36-3.39
			c3.93-5.58,10.34-8.91,17.16-8.91h224.54c6.81,0,13.23,3.33,17.16,8.91c0.7,0.99,0.83,2.28,0.36,3.39l-28.03,65.41
			C275.36,159.26,262.2,167.95,247.58,167.95z M56.84,79.6l27.2,63.47c4.65,10.86,15.29,17.87,27.11,17.87h136.42
			c11.81,0,22.45-7.02,27.11-17.87l27.2-63.47c-2.63-2.83-6.34-4.48-10.25-4.48H67.09C63.19,75.12,59.47,76.76,56.84,79.6z"/>
	</g>
	<g>
		<path class="st2" d="M231.53,348.9H127.21c-12.56,0-22.74-10.18-22.74-22.74v-53.82h149.79v53.82
			C254.26,338.72,244.08,348.9,231.53,348.9z"/>
		<path class="st1" d="M231.53,352.4H127.21c-14.47,0-26.24-11.77-26.24-26.24v-53.82c0-1.93,1.57-3.5,3.5-3.5h149.79
			c1.93,0,3.5,1.57,3.5,3.5v53.82C257.76,340.63,245.99,352.4,231.53,352.4z M107.97,275.85v50.32c0,10.61,8.63,19.24,19.24,19.24
			h104.32c10.61,0,19.24-8.63,19.24-19.24v-50.32H107.97z"/>
	</g>
	<g>
		<path class="st3" d="M237.95,238.59H120.78c-14.34,0-25.96,11.62-25.96,25.96v7.8h169.08v-7.8
			C263.91,250.21,252.29,238.59,237.95,238.59z"/>
		<path class="st1" d="M263.91,275.85H94.82c-1.93,0-3.5-1.57-3.5-3.5v-7.8c0-16.24,13.21-29.46,29.46-29.46h117.17
			c16.24,0,29.46,13.21,29.46,29.46v7.8C267.41,274.28,265.84,275.85,263.91,275.85z M98.32,268.85h162.08v-4.3
			c0-12.38-10.07-22.46-22.46-22.46H120.78c-12.38,0-22.46,10.07-22.46,22.46V268.85z"/>
	</g>
	<g>
		<path class="st4" d="M49.61,200.94H29.06c-14.12,0-25.56,11.44-25.56,25.56v78.06c0,24.49,19.85,44.34,44.34,44.34h1.78V200.94z"
			/>
		<path class="st1" d="M49.61,352.4h-1.78C21.46,352.4,0,330.94,0,304.56V226.5c0-16.03,13.04-29.06,29.06-29.06h20.55
			c1.93,0,3.5,1.57,3.5,3.5V348.9C53.11,350.83,51.55,352.4,49.61,352.4z M29.06,204.44C16.9,204.44,7,214.34,7,226.5v78.06
			c0,21.94,17.39,39.89,39.11,40.8V204.44H29.06z"/>
	</g>
	<g>
		<line class="st4" x1="49.61" y1="238.59" x2="3.5" y2="238.59"/>
		<path class="st1" d="M49.61,242.09H3.5c-1.93,0-3.5-1.57-3.5-3.5s1.57-3.5,3.5-3.5h46.11c1.93,0,3.5,1.57,3.5,3.5
			S51.55,242.09,49.61,242.09z"/>
	</g>
	<g>
		<path class="st4" d="M309.12,200.94h20.55c14.12,0,25.56,11.44,25.56,25.56v78.06c0,24.49-19.85,44.34-44.34,44.34h-1.78V200.94z"
			/>
		<path class="st1" d="M310.89,352.4h-1.78c-1.93,0-3.5-1.57-3.5-3.5V200.94c0-1.93,1.57-3.5,3.5-3.5h20.55
			c16.03,0,29.06,13.04,29.06,29.06v78.06C358.73,330.94,337.27,352.4,310.89,352.4z M312.62,204.44v140.92
			c21.72-0.91,39.11-18.86,39.11-40.8V226.5c0-12.17-9.9-22.06-22.06-22.06H312.62z"/>
	</g>
	<g>
		<line class="st4" x1="309.12" y1="238.59" x2="355.23" y2="238.59"/>
		<path class="st1" d="M355.23,242.09h-46.11c-1.93,0-3.5-1.57-3.5-3.5s1.57-3.5,3.5-3.5h46.11c1.93,0,3.5,1.57,3.5,3.5
			S357.16,242.09,355.23,242.09z"/>
	</g>
	<g>
		<path class="st2" d="M190.31,185.62h-21.88c-5.65,0-10.23-4.58-10.23-10.23V153.5c0-5.65,4.58-10.23,10.23-10.23h21.88
			c5.65,0,10.23,4.58,10.23,10.23v21.88C200.54,181.04,195.96,185.62,190.31,185.62z"/>
		<path class="st1" d="M190.31,189.12h-21.88c-7.57,0-13.73-6.16-13.73-13.73V153.5c0-7.57,6.16-13.73,13.73-13.73h21.88
			c7.57,0,13.73,6.16,13.73,13.73v21.88C204.04,182.96,197.88,189.12,190.31,189.12z M168.42,146.77c-3.71,0-6.73,3.02-6.73,6.73
			v21.88c0,3.71,3.02,6.73,6.73,6.73h21.88c3.71,0,6.73-3.02,6.73-6.73V153.5c0-3.71-3.02-6.73-6.73-6.73H168.42z"/>
	</g>
	<g>
		<path class="st1" d="M235.58,75.12H123.16c-1.93,0-3.5-1.57-3.5-3.5V34.85c0-1.93,1.57-3.5,3.5-3.5h112.42
			c1.93,0,3.5,1.57,3.5,3.5v36.77C239.08,73.55,237.51,75.12,235.58,75.12z M126.66,68.12h105.42V38.35H126.66V68.12z"/>
	</g>
	<g>
		<path class="st5" d="M211.76,3.5h-64.79c-13.15,0-23.82,10.66-23.82,23.82v7.53h112.42v-7.53C235.58,14.16,224.91,3.5,211.76,3.5z
			"/>
		<path class="st1" d="M235.58,38.35H123.16c-1.93,0-3.5-1.57-3.5-3.5v-7.53C119.66,12.25,131.91,0,146.97,0h64.79
			c15.06,0,27.32,12.25,27.32,27.32v7.53C239.08,36.78,237.51,38.35,235.58,38.35z M126.66,31.35h105.42v-4.03
			c0-11.2-9.11-20.32-20.32-20.32h-64.79c-11.2,0-20.32,9.11-20.32,20.32V31.35z"/>
	</g>
	<g>
		<path class="st6" d="M292.12,214.99c-1.93,0-3.5-1.57-3.5-3.5V104.09c0-6.48-5.27-11.76-11.76-11.76h-41.28
			c-1.93,0-3.5-1.57-3.5-3.5s1.57-3.5,3.5-3.5h41.28c10.34,0,18.76,8.41,18.76,18.76v107.39
			C295.62,213.42,294.05,214.99,292.12,214.99z"/>
	</g>
	<g>
		<path class="st7" d="M175.08,382.24H81.95c-10.34,0-18.76-8.41-18.76-18.76v-41.37c0-1.93,1.57-3.5,3.5-3.5s3.5,1.57,3.5,3.5
			v41.37c0,6.48,5.27,11.76,11.76,11.76h93.13c1.93,0,3.5,1.57,3.5,3.5S177.01,382.24,175.08,382.24z"/>
	</g>
</g>
</svg>
