<?xml version="1.0" encoding="utf-8"?>
<!-- Generator: Adobe Illustrator 24.0.0, SVG Export Plug-In . SVG Version: 6.00 Build 0)  -->
<svg version="1.1" id="Layer_1" xmlns="http://www.w3.org/2000/svg" xmlns:xlink="http://www.w3.org/1999/xlink" x="0px" y="0px"
	 viewBox="0 0 404.46 350.83" style="enable-background:new 0 0 404.46 350.83;" xml:space="preserve">
<style type="text/css">
	.st0{fill:#FFCA28;}
	.st1{fill:#37474F;}
	.st2{fill:#FFE082;}
	.st3{fill:#FFA000;}
	.st4{fill:#EEEEEE;}
	.st5{fill:#FF7043;}
	.st6{fill:#26C6DA;}
	.st7{fill:#BDBDBD;}
</style>
<g>
	<g>
		<path class="st0" d="M362.63,331.36H41.82c-21.16,0-38.32-17.16-38.32-38.32V73.76c0-21.16,17.16-38.32,38.32-38.32h320.81
			c21.16,0,38.32,17.16,38.32,38.32v219.28C400.95,314.21,383.8,331.36,362.63,331.36z"/>
		<path class="st1" d="M362.63,334.86H41.82C18.76,334.86,0,316.1,0,293.04V73.76C0,50.7,18.76,31.94,41.82,31.94h320.81
			c23.06,0,41.82,18.76,41.82,41.82v219.28C404.46,316.1,385.69,334.86,362.63,334.86z M41.82,38.94C22.62,38.94,7,54.56,7,73.76
			v219.28c0,19.2,15.62,34.82,34.82,34.82h320.81c19.2,0,34.82-15.62,34.82-34.82V73.76c0-19.2-15.62-34.82-34.82-34.82H41.82z"/>
	</g>
	<g>
		<path class="st2" d="M89.46,317.86H41.82c-13.69,0-24.82-11.13-24.82-24.82v-84.63c0-1.93,1.57-3.5,3.5-3.5s3.5,1.57,3.5,3.5
			v84.63c0,9.83,7.99,17.82,17.82,17.82h47.64c1.93,0,3.5,1.57,3.5,3.5S91.39,317.86,89.46,317.86z"/>
	</g>
	<g>
		<path class="st3" d="M383.96,137.28c-1.93,0-3.5-1.57-3.5-3.5V73.76c0-9.83-7.99-17.82-17.82-17.82h-62.2
			c-1.93,0-3.5-1.57-3.5-3.5s1.57-3.5,3.5-3.5h62.2c13.69,0,24.82,11.13,24.82,24.82v60.02
			C387.46,135.71,385.89,137.28,383.96,137.28z"/>
	</g>
	<g>
		<path class="st4" d="M192.04,297.91L192.04,297.91c-7.19,0-13.02-5.83-13.02-13.02v-25.01c0-7.19,5.83-13.02,13.02-13.02h0
			c7.19,0,13.02,5.83,13.02,13.02v25.01C205.06,292.08,199.23,297.91,192.04,297.91z"/>
		<path class="st1" d="M192.04,301.41c-9.11,0-16.52-7.41-16.52-16.52v-25c0-9.11,7.41-16.52,16.52-16.52s16.52,7.41,16.52,16.52v25
			C208.56,294,201.15,301.41,192.04,301.41z M192.04,250.37c-5.25,0-9.52,4.27-9.52,9.52v25c0,5.25,4.27,9.52,9.52,9.52
			s9.52-4.27,9.52-9.52v-25C201.56,254.64,197.29,250.37,192.04,250.37z"/>
	</g>
	<g>
		<path class="st5" d="M246.24,297.91L246.24,297.91c-7.19,0-13.02-5.83-13.02-13.02V213.3c0-7.19,5.83-13.02,13.02-13.02h0
			c7.19,0,13.02,5.83,13.02,13.02v71.59C259.25,292.08,253.43,297.91,246.24,297.91z"/>
		<path class="st1" d="M246.24,301.41c-9.11,0-16.52-7.41-16.52-16.52V213.3c0-9.11,7.41-16.52,16.52-16.52
			c9.11,0,16.52,7.41,16.52,16.52v71.59C262.75,294,255.34,301.41,246.24,301.41z M246.24,203.79c-5.25,0-9.52,4.27-9.52,9.52v71.59
			c0,5.25,4.27,9.52,9.52,9.52s9.52-4.27,9.52-9.52V213.3C255.75,208.06,251.48,203.79,246.24,203.79z"/>
	</g>
	<g>
		<path class="st6" d="M300.43,297.91L300.43,297.91c-7.19,0-13.02-5.83-13.02-13.02v-59.49c0-7.19,5.83-13.02,13.02-13.02h0
			c7.19,0,13.02,5.83,13.02,13.02v59.49C313.45,292.08,307.62,297.91,300.43,297.91z"/>
		<path class="st1" d="M300.43,301.41c-9.11,0-16.52-7.41-16.52-16.52V225.4c0-9.11,7.41-16.52,16.52-16.52
			c9.11,0,16.52,7.41,16.52,16.52v59.49C316.95,294,309.54,301.41,300.43,301.41z M300.43,215.89c-5.25,0-9.52,4.27-9.52,9.52v59.49
			c0,5.25,4.27,9.52,9.52,9.52s9.52-4.27,9.52-9.52V225.4C309.95,220.16,305.68,215.89,300.43,215.89z"/>
	</g>
	<g>
		<path class="st4" d="M354.63,297.91L354.63,297.91c-7.19,0-13.02-5.83-13.02-13.02V153.7c0-7.19,5.83-13.02,13.02-13.02h0
			c7.19,0,13.02,5.83,13.02,13.02v131.19C367.65,292.08,361.82,297.91,354.63,297.91z"/>
		<path class="st1" d="M354.63,301.41c-9.11,0-16.52-7.41-16.52-16.52V153.7c0-9.11,7.41-16.52,16.52-16.52s16.52,7.41,16.52,16.52
			v131.19C371.15,294,363.74,301.41,354.63,301.41z M354.63,144.19c-5.25,0-9.52,4.27-9.52,9.52v131.19c0,5.25,4.27,9.52,9.52,9.52
			s9.52-4.27,9.52-9.52V153.7C364.15,148.45,359.88,144.19,354.63,144.19z"/>
	</g>
	<g>
		<path class="st4" d="M112.59,166.24h67.99c0,37.3-30.69,67.99-67.99,67.99S44.6,203.54,44.6,166.24c0-17,6.37-33.39,17.85-45.92
			L112.59,166.24z"/>
		<path class="st1" d="M112.59,237.73c-39.42,0-71.49-32.07-71.49-71.49c0-17.92,6.67-35.07,18.77-48.28
			c0.63-0.68,1.5-1.09,2.43-1.13c0.92-0.04,1.83,0.29,2.52,0.92l49.13,45h66.63c1.93,0,3.5,1.57,3.5,3.5
			C184.07,205.66,152.01,237.73,112.59,237.73z M62.74,125.33c-9.46,11.52-14.64,25.92-14.64,40.91c0,35.56,28.93,64.49,64.49,64.49
			c34.38,0,62.57-27.05,64.39-60.99h-64.39c-0.88,0-1.72-0.33-2.36-0.92L62.74,125.33z"/>
	</g>
	<g>
		<path class="st6" d="M124.06,149.63l0.07-67.99c37.27,0.04,67.91,30.72,67.91,67.99c0,0.02,0,0.04,0,0.07L124.06,149.63z"/>
		<path class="st1" d="M192.04,153.2C192.04,153.2,192.04,153.2,192.04,153.2l-67.99-0.07c-0.93,0-1.82-0.37-2.47-1.03
			c-0.66-0.66-1.02-1.55-1.02-2.48l0.07-67.99c0-0.93,0.37-1.82,1.03-2.47c0.66-0.65,1.55-1.02,2.47-1.02c0,0,0,0,0,0
			c39.38,0.04,71.41,32.11,71.41,71.49c0,0.93-0.37,1.85-1.03,2.51C193.86,152.79,192.97,153.2,192.04,153.2z M127.56,146.13
			l60.89,0.06c-1.76-32.8-28.08-59.15-60.83-60.95L127.56,146.13z"/>
	</g>
	<g>
		<path class="st5" d="M108.15,133.78L59.15,86.65C71.97,73.33,89.67,65.8,108.15,65.8c0.02,0,0.03,0,0.05,0L108.15,133.78z"/>
		<path class="st1" d="M108.15,137.28c-0.89,0-1.76-0.34-2.43-0.98L56.73,89.17c-1.39-1.34-1.44-3.56-0.1-4.95
			c13.4-13.93,32.18-21.93,51.52-21.93c0.93,0,1.84,0.37,2.5,1.03c0.66,0.66,1.05,1.55,1.05,2.48l-0.05,67.99
			c0,1.4-0.84,2.67-2.13,3.22C109.08,137.19,108.61,137.28,108.15,137.28z M64.17,86.62l40.48,38.94l0.04-56.17
			C89.63,70.22,75.19,76.36,64.17,86.62z"/>
	</g>
	<g>
		<path class="st7" d="M246.16,35.44h-87.87V22.77c0-10.64,8.63-19.27,19.27-19.27h49.33c10.64,0,19.27,8.63,19.27,19.27V35.44z"/>
		<path class="st1" d="M246.16,38.94h-87.87c-1.93,0-3.5-1.57-3.5-3.5V22.77C154.79,10.21,165.01,0,177.56,0h49.33
			c12.55,0,22.77,10.21,22.77,22.77v12.67C249.66,37.37,248.09,38.94,246.16,38.94z M161.79,31.94h80.87v-9.17
			c0-8.69-7.07-15.77-15.77-15.77h-49.33c-8.69,0-15.77,7.07-15.77,15.77V31.94z"/>
	</g>
	<g>
		<path class="st7" d="M230.19,347.33h-55.93c-8.82,0-15.97-7.15-15.97-15.97v0c0-8.82,7.15-15.97,15.97-15.97h55.93
			c8.82,0,15.97,7.15,15.97,15.97v0C246.16,340.18,239.01,347.33,230.19,347.33z"/>
		<path class="st1" d="M230.19,350.83h-55.93c-10.74,0-19.47-8.73-19.47-19.47s8.73-19.47,19.47-19.47h55.93
			c10.74,0,19.47,8.73,19.47,19.47S240.93,350.83,230.19,350.83z M174.26,318.89c-6.88,0-12.47,5.59-12.47,12.47
			s5.59,12.47,12.47,12.47h55.93c6.88,0,12.47-5.59,12.47-12.47s-5.59-12.47-12.47-12.47H174.26z"/>
	</g>
</g>
</svg>
