<?xml version="1.0" encoding="utf-8"?>
<!-- Generator: Adobe Illustrator 24.0.0, SVG Export Plug-In . SVG Version: 6.00 Build 0)  -->
<svg version="1.1" id="Layer_1" xmlns="http://www.w3.org/2000/svg" xmlns:xlink="http://www.w3.org/1999/xlink" x="0px" y="0px"
	 viewBox="0 0 472.55 360.4" style="enable-background:new 0 0 472.55 360.4;" xml:space="preserve">
<style type="text/css">
	.st0{fill:#BDBDBD;}
	.st1{fill:#37474F;}
	.st2{fill:#FFCA28;}
	.st3{fill:#FFA000;}
	.st4{fill:#FFE082;}
	.st5{fill:#26C6DA;}
	.st6{fill:#FF7043;}
	.st7{fill:#EEEEEE;}
</style>
<g>
	<g>
		<path class="st0" d="M199.51,41.63c0-3.55,0.57-6.97,1.62-10.17H142.3c-16.64,0-30.12,13.49-30.12,30.12v21.21
			c0,16.64,13.49,30.12,30.12,30.12h57.43c-0.14-1.24-0.22-2.49-0.22-3.76V41.63z"/>
		<path class="st1" d="M199.74,116.42H142.3c-18.54,0-33.62-15.08-33.62-33.62V61.59c0-18.54,15.08-33.62,33.62-33.62h58.83
			c1.12,0,2.17,0.54,2.83,1.44c0.66,0.91,0.84,2.08,0.49,3.14c-0.96,2.94-1.45,6-1.45,9.08v67.52c0,1.09,0.07,2.19,0.2,3.36
			c0.11,0.99-0.2,1.98-0.87,2.73S200.73,116.42,199.74,116.42z M142.3,34.96c-14.68,0-26.62,11.94-26.62,26.62v21.21
			c0,14.68,11.94,26.62,26.62,26.62h53.71c0-0.09,0-0.17,0-0.26V41.63c0-2.24,0.21-4.47,0.62-6.67H142.3z"/>
	</g>
	<g>
		<path class="st2" d="M413.92,3.52l-182.65,5.4c-14.14,0.42-25.96,9.77-30.14,22.54c-1.05,3.2-1.62,6.62-1.62,10.17v67.52
			c0,1.27,0.08,2.53,0.22,3.76c1.83,15.94,15.12,28.46,31.54,28.95l182.65,5.4c30.18,0.89,55.13-23.33,55.13-53.52v-36.7
			C469.05,26.85,444.1,2.63,413.92,3.52z"/>
		<path class="st1" d="M415.55,150.79c-0.58,0-1.16-0.01-1.74-0.03l-182.65-5.4c-17.87-0.53-32.88-14.31-34.91-32.05
			c-0.16-1.42-0.25-2.82-0.25-4.16V41.63c0-3.82,0.6-7.61,1.79-11.26c4.73-14.48,18.14-24.5,33.36-24.95l182.65-5.4l0,0
			c15.56-0.46,30.26,5.26,41.42,16.09s17.31,25.37,17.31,40.93v36.7c0,15.56-6.15,30.09-17.31,40.93
			C444.49,145.1,430.46,150.79,415.55,150.79z M414.02,7.02l-182.65,5.4c-12.28,0.36-23.1,8.45-26.91,20.13
			c-0.96,2.94-1.45,6-1.45,9.08v67.52c0,1.09,0.07,2.19,0.2,3.36c1.64,14.31,13.75,25.42,28.16,25.85l182.65,5.4
			c13.64,0.39,26.55-4.61,36.34-14.12c9.79-9.51,15.18-22.26,15.18-35.91v-36.7c0-13.65-5.39-26.4-15.18-35.91
			C440.57,11.63,427.67,6.62,414.02,7.02L414.02,7.02z"/>
	</g>
	<g>
		<path class="st3" d="M440.77,122.55c-0.9,0-1.79-0.34-2.48-1.03c-1.37-1.37-1.36-3.58,0-4.95c6.1-6.09,9.47-14.2,9.47-22.83v-36.7
			c0-17.79-14.46-32.26-32.23-32.26c-1.93,0-3.5-1.57-3.5-3.5s1.57-3.5,3.5-3.5c21.63,0,39.23,17.61,39.23,39.26v36.7
			c0,10.5-4.09,20.37-11.52,27.78C442.56,122.21,441.67,122.55,440.77,122.55z"/>
	</g>
	<g>
		<path class="st4" d="M217.4,114.39c-1.75,0-3.27-1.32-3.47-3.1c-0.09-0.76-0.13-1.46-0.13-2.14V41.63c0-1.94,0.31-3.87,0.92-5.73
			c0.6-1.84,2.58-2.84,4.41-2.24c1.84,0.6,2.84,2.58,2.24,4.41c-0.38,1.16-0.57,2.36-0.57,3.56v67.52c0,0.4,0.03,0.84,0.08,1.34
			c0.22,1.92-1.16,3.66-3.08,3.88C217.67,114.39,217.53,114.39,217.4,114.39z"/>
	</g>
	<g>
		<path class="st5" d="M394.64,46.33H341.8c-6.28,0-11.37,5.09-11.37,11.37v35.4c0,6.28,5.09,11.37,11.37,11.37h52.84
			c6.28,0,11.37-5.09,11.37-11.37V57.7C406.01,51.42,400.92,46.33,394.64,46.33z"/>
		<path class="st1" d="M394.64,107.96H341.8c-8.2,0-14.87-6.67-14.87-14.87V57.7c0-8.2,6.67-14.87,14.87-14.87h52.84
			c8.2,0,14.87,6.67,14.87,14.87v35.4C409.51,101.29,402.84,107.96,394.64,107.96z M341.8,49.83c-4.34,0-7.87,3.53-7.87,7.87v35.4
			c0,4.34,3.53,7.87,7.87,7.87h52.84c4.34,0,7.87-3.53,7.87-7.87V57.7c0-4.34-3.53-7.87-7.87-7.87H341.8z"/>
	</g>
	<g>
		<path class="st0" d="M431.23,265.52H312.38c-10.74,0-19.45,8.71-19.45,19.45v21.37h157.76v-21.37
			C450.68,274.23,441.97,265.52,431.23,265.52z"/>
		<path class="st1" d="M450.68,309.85H292.93c-1.93,0-3.5-1.57-3.5-3.5v-21.37c0-12.66,10.3-22.95,22.95-22.95h118.85
			c12.66,0,22.95,10.3,22.95,22.95v21.37C454.18,308.28,452.61,309.85,450.68,309.85z M296.43,302.85h150.76v-17.87
			c0-8.8-7.16-15.95-15.95-15.95H312.38c-8.8,0-15.95,7.16-15.95,15.95V302.85z"/>
	</g>
	<g>
		<path class="st1" d="M112.18,75.69H3.5c-1.93,0-3.5-1.57-3.5-3.5s1.57-3.5,3.5-3.5h108.68c1.93,0,3.5,1.57,3.5,3.5
			S114.11,75.69,112.18,75.69z"/>
	</g>
	<g>
		<path class="st1" d="M162.92,75.69h-50.74c-1.93,0-3.5-1.57-3.5-3.5s1.57-3.5,3.5-3.5h50.74c1.93,0,3.5,1.57,3.5,3.5
			S164.85,75.69,162.92,75.69z"/>
	</g>
	<g>
		<path class="st1" d="M150.56,55.91h-36.96c-1.93,0-3.5-1.57-3.5-3.5s1.57-3.5,3.5-3.5h36.96c1.93,0,3.5,1.57,3.5,3.5
			S152.5,55.91,150.56,55.91z"/>
	</g>
	<g>
		<path class="st1" d="M150.56,95.48h-36.96c-1.93,0-3.5-1.57-3.5-3.5s1.57-3.5,3.5-3.5h36.96c1.93,0,3.5,1.57,3.5,3.5
			S152.5,95.48,150.56,95.48z"/>
	</g>
	<g>
		<path class="st1" d="M34.68,85.2c-0.92,0-1.85-0.36-2.54-1.09l-18.1-19.03c-1.33-1.4-1.28-3.62,0.12-4.95
			c1.4-1.33,3.62-1.28,4.95,0.12l18.1,19.03c1.33,1.4,1.28,3.62-0.12,4.95C36.42,84.88,35.55,85.2,34.68,85.2z"/>
	</g>
	<g>
		<path class="st1" d="M50.85,85.2c-0.92,0-1.85-0.36-2.54-1.09l-18.1-19.03c-1.33-1.4-1.28-3.62,0.12-4.95
			c1.4-1.33,3.62-1.28,4.95,0.12l18.1,19.03c1.33,1.4,1.28,3.62-0.12,4.95C52.58,84.88,51.72,85.2,50.85,85.2z"/>
	</g>
	<g>
		<path class="st1" d="M67.02,85.2c-0.92,0-1.85-0.36-2.54-1.09l-18.1-19.03c-1.33-1.4-1.28-3.62,0.12-4.95
			c1.4-1.33,3.62-1.28,4.95,0.12l18.1,19.03c1.33,1.4,1.28,3.62-0.12,4.95C68.75,84.88,67.88,85.2,67.02,85.2z"/>
	</g>
	<g>
		<path class="st1" d="M83.19,85.2c-0.92,0-1.85-0.36-2.54-1.09l-18.1-19.03c-1.33-1.4-1.28-3.62,0.12-4.95
			c1.4-1.33,3.62-1.28,4.95,0.12l18.1,19.03c1.33,1.4,1.28,3.62-0.12,4.95C84.92,84.88,84.05,85.2,83.19,85.2z"/>
	</g>
	<g>
		<path class="st1" d="M234.11,145.47c-1.93,0-3.5-1.57-3.5-3.5V8.84c0-1.93,1.57-3.5,3.5-3.5s3.5,1.57,3.5,3.5v133.13
			C237.61,143.9,236.04,145.47,234.11,145.47z"/>
	</g>
	<g>
		<path class="st1" d="M259.76,146.21c-1.93,0-3.5-1.57-3.5-3.5V8.08c0-1.93,1.57-3.5,3.5-3.5s3.5,1.57,3.5,3.5v134.63
			C263.26,144.64,261.7,146.21,259.76,146.21z"/>
	</g>
	<g>
		<path class="st2" d="M393.41,208.05c0.59,10.9,4.16,57.47,4.16,57.47h21.54l-10.79-92.98
			C395.68,178.06,392.81,197.15,393.41,208.05z"/>
		<path class="st1" d="M419.1,269.02h-21.54c-1.83,0-3.35-1.41-3.49-3.23c-0.04-0.47-3.58-46.74-4.17-57.55l0,0
			c-0.62-11.42,2.26-32.46,17.01-38.9c1.02-0.45,2.18-0.38,3.15,0.17c0.96,0.55,1.6,1.53,1.73,2.63l10.79,92.98
			c0.12,0.99-0.2,1.99-0.86,2.73C421.05,268.59,420.1,269.02,419.1,269.02z M400.81,262.02h14.36l-9.68-83.42
			c-7.03,6.72-9.08,20.42-8.6,29.25C397.39,216.92,399.99,251.27,400.81,262.02z"/>
	</g>
	<g>
		<path class="st6" d="M289.65,143.59L289.65,143.59l6.66,36.55c1.63,8.97,9.45,15.49,18.56,15.49h15.56l-1.27-10.64
			C325.03,152.29,289.66,143.59,289.65,143.59z"/>
		<path class="st1" d="M330.43,199.13h-15.56c-10.81,0-20.07-7.72-22.01-18.36l-6.66-36.55c-0.21-1.17,0.18-2.37,1.05-3.18
			c0.87-0.81,2.09-1.13,3.24-0.84c1.54,0.39,37.77,9.83,42.13,44.35l1.28,10.66c0.12,0.99-0.19,1.99-0.86,2.74
			C332.39,198.7,331.44,199.13,330.43,199.13z M294.15,148.76l5.6,30.75c1.33,7.31,7.69,12.62,15.12,12.62h11.61l-0.8-6.72
			C322.82,162.7,303.69,152.49,294.15,148.76z"/>
	</g>
	<g>
		<path class="st7" d="M329.16,184.99l1.27,10.64l0,0l0,0l8.36,69.89h58.77c0,0-3.57-46.57-4.16-57.47
			c-0.59-10.9,2.27-29.98,14.91-35.5l-2.96-25.53l-115.7-3.42C289.66,143.59,325.03,152.29,329.16,184.99z"/>
		<path class="st1" d="M397.57,269.02H338.8c-1.77,0-3.26-1.32-3.48-3.08l-9.63-80.52c-3.77-29.81-35.53-38.09-36.88-38.43
			c-0.15-0.04-0.31-0.09-0.45-0.15c-1.58-0.63-2.47-2.3-2.13-3.96c0.35-1.66,1.79-2.86,3.53-2.79l115.7,3.42
			c1.74,0.05,3.17,1.37,3.37,3.09l2.96,25.53c0.18,1.53-0.67,2.99-2.08,3.61c-10.44,4.56-13.39,21.7-12.82,32.11
			c0.59,10.74,4.12,56.93,4.16,57.4c0.07,0.97-0.26,1.93-0.92,2.65C399.47,268.61,398.54,269.02,397.57,269.02z M341.9,262.02h51.89
			c-0.86-11.32-3.39-44.8-3.88-53.78c-0.59-10.78,1.95-30.15,14.65-37.69l-2.33-20.12l-94.74-2.8
			c10.63,6.47,22.74,17.88,25.14,36.93c0,0.01,0,0.01,0,0.02L341.9,262.02z"/>
	</g>
	<g>
		<path class="st6" d="M200.17,256.66c-6.38-15.59-18.01-28.48-32.69-36.46c-10.3-5.59-22.11-8.77-34.65-8.77h0
			c-40.17,0-72.73,32.56-72.73,72.73v42.76c0,16.56,13.42,29.98,29.98,29.98h115.49v-72.73
			C205.56,274.43,203.64,265.14,200.17,256.66z"/>
		<path class="st1" d="M205.56,360.4H90.07c-18.46,0-33.48-15.02-33.48-33.48v-42.76c0-42.04,34.2-76.23,76.23-76.23
			c12.68,0,25.24,3.18,36.32,9.19c15.45,8.39,27.62,21.96,34.26,38.21v0c3.75,9.17,5.65,18.87,5.65,28.83v72.74
			C209.06,358.83,207.49,360.4,205.56,360.4z M132.82,214.93c-38.18,0-69.24,31.06-69.24,69.23v42.76
			c0,14.6,11.88,26.48,26.48,26.48h111.99v-69.24c0-9.05-1.73-17.86-5.13-26.18l0,0c-6.04-14.76-17.09-27.09-31.12-34.71
			C155.75,217.81,144.35,214.93,132.82,214.93z"/>
	</g>
	<g>
		<rect x="205.56" y="345.69" class="st2" width="54.67" height="11.2"/>
		<path class="st1" d="M260.23,360.4h-54.67c-1.93,0-3.5-1.57-3.5-3.5v-11.21c0-1.93,1.57-3.5,3.5-3.5h54.67
			c1.93,0,3.5,1.57,3.5,3.5v11.21C263.73,358.83,262.16,360.4,260.23,360.4z M209.06,353.4h47.67v-4.21h-47.67V353.4z"/>
	</g>
	<g>
		<circle class="st7" cx="130.36" cy="286.08" r="30.77"/>
		<path class="st1" d="M130.36,320.34c-18.9,0-34.27-15.37-34.27-34.27c0-18.89,15.37-34.27,34.27-34.27s34.27,15.37,34.27,34.27
			C164.63,304.97,149.26,320.34,130.36,320.34z M130.36,258.81c-15.04,0-27.27,12.23-27.27,27.27s12.23,27.27,27.27,27.27
			s27.27-12.23,27.27-27.27S145.4,258.81,130.36,258.81z"/>
	</g>
	<g>
		<path class="st5" d="M200.17,256.66l14.27-14.12c-8.59-15.06-19.01-27.75-32.46-36.51l-14.51,14.18
			C182.17,228.17,193.8,241.06,200.17,256.66z"/>
		<path class="st1" d="M200.17,260.16c-0.23,0-0.47-0.02-0.7-0.07c-1.15-0.23-2.1-1.02-2.54-2.11
			c-6.04-14.76-17.09-27.09-31.12-34.71c-0.98-0.53-1.64-1.49-1.8-2.59c-0.15-1.1,0.23-2.21,1.02-2.99l14.51-14.18
			c1.17-1.14,2.98-1.32,4.36-0.43c12.93,8.43,23.92,20.76,33.58,37.71c0.79,1.38,0.55,3.11-0.58,4.22l-14.27,14.13
			C201.97,259.8,201.08,260.16,200.17,260.16z M173.21,219.49c12.06,7.55,21.82,18.37,28.09,31.13l8.76-8.67
			c-8.17-13.75-17.25-24.08-27.67-31.43L173.21,219.49z"/>
	</g>
	<g>
		<path class="st1" d="M90.07,342.33c-8.49,0-15.4-6.91-15.4-15.4c0-1.93,1.57-3.5,3.5-3.5s3.5,1.57,3.5,3.5
			c0,4.63,3.77,8.4,8.4,8.4c1.93,0,3.5,1.57,3.5,3.5S92,342.33,90.07,342.33z"/>
	</g>
	<g>
		<path class="st1" d="M187.49,287.66c-1.93,0-3.5-1.57-3.5-3.5c0-6.7-1.27-13.2-3.78-19.34c-0.73-1.79,0.13-3.83,1.92-4.56
			c1.79-0.73,3.83,0.13,4.56,1.92c2.85,6.98,4.3,14.38,4.3,21.99C190.99,286.1,189.42,287.66,187.49,287.66z"/>
	</g>
	<g>
		<path class="st1" d="M176.13,254.3c-1.05,0-2.08-0.47-2.77-1.36c-4.35-5.64-9.94-10.4-16.17-13.78
			c-7.42-4.03-15.84-6.16-24.36-6.16c-1.93,0-3.5-1.57-3.5-3.5s1.57-3.5,3.5-3.5c9.68,0,19.26,2.42,27.7,7
			c7.08,3.84,13.43,9.26,18.37,15.66c1.18,1.53,0.9,3.73-0.63,4.91C177.63,254.06,176.87,254.3,176.13,254.3z"/>
	</g>
</g>
</svg>
