<?xml version="1.0" encoding="utf-8"?>
<!-- Generator: Adobe Illustrator 24.0.0, SVG Export Plug-In . SVG Version: 6.00 Build 0)  -->
<svg version="1.1" id="Layer_1" xmlns="http://www.w3.org/2000/svg" xmlns:xlink="http://www.w3.org/1999/xlink" x="0px" y="0px"
	 viewBox="0 0 405.17 395.59" style="enable-background:new 0 0 405.17 395.59;" xml:space="preserve">
<style type="text/css">
	.st0{fill:#FFCA28;}
	.st1{fill:#37474F;}
	.st2{fill:#FFA000;}
	.st3{fill:#FFE082;}
	.st4{fill:#26C6DA;}
	.st5{fill:#EEEEEE;}
	.st6{fill:#FF7043;}
</style>
<g>
	<g>
		<path class="st0" d="M202.58,357.77h49.16c0,0,0-36.35,0-52.5s-0.81-63.71,65.62-56.74L202.58,72.56L87.8,248.53
			c66.43-6.97,65.62,40.59,65.62,56.74s0,52.5,0,52.5H202.58z"/>
		<path class="st1" d="M251.74,361.27h-98.32c-1.93,0-3.5-1.57-3.5-3.5v-53.08c0.01-9.69,0.02-29.86-13.74-42.26
			c-10.2-9.19-26.35-12.69-48.02-10.42c-1.34,0.15-2.65-0.5-3.35-1.66c-0.7-1.15-0.68-2.61,0.05-3.74L199.65,70.64
			c0.65-0.99,1.75-1.59,2.93-1.59s2.29,0.6,2.93,1.59L320.3,246.62c0.74,1.13,0.76,2.58,0.05,3.74c-0.7,1.15-2,1.81-3.35,1.66
			c-21.67-2.27-37.82,1.24-48.02,10.42c-13.76,12.4-13.75,32.57-13.74,42.26v53.08C255.24,359.7,253.68,361.27,251.74,361.27z
			 M156.93,354.27h91.32V304.7c-0.01-10.7-0.02-32.98,16.06-47.46c10.52-9.48,26.06-13.74,46.25-12.75L202.58,78.96L94.62,244.49
			c20.2-1,35.73,3.27,46.25,12.75c16.08,14.49,16.06,36.76,16.06,47.46V354.27z"/>
	</g>
	<g>
		<path class="st2" d="M234.74,308.21c-1.93,0-3.5-1.57-3.5-3.5c0-8.82-0.02-27.17,9.08-44.01c5.92-10.96,17.69-24.78,40.55-30.58
			l-62.17-95.31c-1.06-1.62-0.6-3.79,1.02-4.84c1.62-1.05,3.79-0.6,4.84,1.02l64.93,99.55c0.64,0.98,0.75,2.21,0.29,3.29
			c-0.46,1.07-1.42,1.85-2.57,2.07c-23.49,4.42-35.12,17.75-40.74,28.14c-8.26,15.28-8.25,32.44-8.24,40.68
			C238.24,306.64,236.68,308.21,234.74,308.21C234.74,308.21,234.74,308.21,234.74,308.21z"/>
	</g>
	<g>
		<path class="st3" d="M170.42,308.2C170.42,308.2,170.42,308.2,170.42,308.2c-1.93,0-3.5-1.57-3.5-3.5c0-8.25,0.01-25.4-8.24-40.68
			c-5.62-10.39-17.25-23.71-40.74-28.14c-1.15-0.22-2.11-0.99-2.57-2.07c-0.46-1.08-0.35-2.31,0.29-3.29l64.93-99.55
			c1.06-1.62,3.23-2.07,4.84-1.02c1.62,1.06,2.08,3.22,1.02,4.84l-62.17,95.31c22.86,5.8,34.63,19.62,40.55,30.57
			c9.1,16.84,9.09,35.19,9.08,44.01C173.92,306.63,172.36,308.2,170.42,308.2z"/>
	</g>
	<g>
		<circle class="st4" cx="202.58" cy="241.56" r="21.5"/>
		<path class="st1" d="M202.58,266.57c-13.79,0-25-11.22-25-25c0-13.79,11.22-25,25-25c13.79,0,25,11.22,25,25
			C227.59,255.35,216.37,266.57,202.58,266.57z M202.58,223.56c-9.93,0-18,8.08-18,18s8.08,18,18,18s18-8.08,18-18
			S212.51,223.56,202.58,223.56z"/>
	</g>
	<g>
		<path class="st1" d="M202.58,223.56c-1.93,0-3.5-1.57-3.5-3.5V72.56c0-1.93,1.57-3.5,3.5-3.5s3.5,1.57,3.5,3.5v147.5
			C206.08,221.99,204.52,223.56,202.58,223.56z"/>
	</g>
	<g>
		<rect x="168.35" y="357.77" class="st5" width="68.47" height="34.33"/>
		<path class="st1" d="M236.82,395.59h-68.47c-1.93,0-3.5-1.57-3.5-3.5v-34.33c0-1.93,1.57-3.5,3.5-3.5h68.47
			c1.93,0,3.5,1.57,3.5,3.5v34.33C240.32,394.03,238.75,395.59,236.82,395.59z M171.85,388.59h61.47v-27.33h-61.47V388.59z"/>
	</g>
	<g>
		<rect x="153.43" y="323.44" class="st5" width="98.32" height="34.33"/>
		<path class="st1" d="M251.74,361.27h-98.32c-1.93,0-3.5-1.57-3.5-3.5v-34.33c0-1.93,1.57-3.5,3.5-3.5h98.32
			c1.93,0,3.5,1.57,3.5,3.5v34.33C255.24,359.7,253.68,361.27,251.74,361.27z M156.93,354.27h91.32v-27.33h-91.32V354.27z"/>
	</g>
	<g>
		<rect x="3.5" y="200.77" class="st4" width="41.8" height="41.8"/>
		<path class="st1" d="M45.3,246.07H3.5c-1.93,0-3.5-1.57-3.5-3.5v-41.8c0-1.93,1.57-3.5,3.5-3.5h41.8c1.93,0,3.5,1.57,3.5,3.5v41.8
			C48.8,244.5,47.23,246.07,45.3,246.07z M7,239.07h34.8v-34.8H7V239.07z"/>
	</g>
	<g>
		
			<rect x="359.87" y="200.77" transform="matrix(-1 -4.491220e-11 4.491220e-11 -1 761.5394 443.3473)" class="st4" width="41.8" height="41.8"/>
		<path class="st1" d="M401.67,246.07h-41.8c-1.93,0-3.5-1.57-3.5-3.5v-41.8c0-1.93,1.57-3.5,3.5-3.5h41.8c1.93,0,3.5,1.57,3.5,3.5
			v41.8C405.17,244.5,403.6,246.07,401.67,246.07z M363.37,239.07h34.8v-34.8h-34.8V239.07z"/>
	</g>
	<g>
		<g>
			<path class="st1" d="M25.25,204.28c-0.08,0-0.16,0-0.24-0.01c-1.93-0.13-3.39-1.8-3.26-3.73c0.25-3.71,0.6-7.45,1.05-11.14
				c0.23-1.92,1.97-3.29,3.9-3.05c1.92,0.23,3.29,1.98,3.05,3.9c-0.43,3.57-0.78,7.19-1.02,10.77
				C28.62,202.86,27.08,204.28,25.25,204.28z"/>
		</g>
		<g>
			<path class="st1" d="M29.93,172.5c-0.26,0-0.52-0.03-0.79-0.09c-1.88-0.43-3.06-2.31-2.63-4.2c1.61-6.98,3.6-13.93,5.93-20.67
				c0.63-1.83,2.62-2.8,4.45-2.17c1.83,0.63,2.8,2.62,2.17,4.45c-2.25,6.5-4.17,13.22-5.72,19.95
				C32.97,171.4,31.53,172.5,29.93,172.5z M375.21,172.39c-1.59,0-3.03-1.1-3.41-2.71c-1.55-6.74-3.48-13.45-5.73-19.95
				c-0.63-1.83,0.34-3.82,2.16-4.45c1.83-0.63,3.82,0.34,4.45,2.16c2.33,6.74,4.33,13.69,5.94,20.67c0.43,1.88-0.74,3.76-2.62,4.2
				C375.74,172.36,375.47,172.39,375.21,172.39z M43.72,132.6c-0.5,0-1.01-0.11-1.49-0.33c-1.75-0.82-2.5-2.91-1.67-4.66
				c3.06-6.48,6.5-12.86,10.22-18.94c1.01-1.65,3.17-2.17,4.81-1.16c1.65,1.01,2.17,3.16,1.16,4.81
				c-3.59,5.87-6.91,12.02-9.86,18.27C46.29,131.86,45.03,132.6,43.72,132.6z M361.41,132.52c-1.31,0-2.57-0.74-3.17-2.01
				c-2.95-6.25-6.27-12.39-9.86-18.26c-1.01-1.65-0.49-3.8,1.15-4.81c1.65-1.01,3.8-0.49,4.81,1.15
				c3.73,6.08,7.17,12.45,10.22,18.93c0.83,1.75,0.08,3.83-1.67,4.66C362.42,132.41,361.91,132.52,361.41,132.52z M65.78,96.6
				c-0.75,0-1.51-0.24-2.14-0.74c-1.53-1.19-1.8-3.38-0.62-4.91c4.41-5.67,9.17-11.14,14.15-16.23c1.35-1.38,3.57-1.41,4.95-0.06
				c1.38,1.35,1.41,3.57,0.06,4.95c-4.8,4.91-9.38,10.17-13.63,15.64C67.86,96.14,66.83,96.6,65.78,96.6z M339.35,96.56
				c-1.04,0-2.08-0.46-2.77-1.35c-4.24-5.46-8.82-10.71-13.62-15.62c-1.35-1.38-1.33-3.6,0.06-4.95c1.38-1.35,3.6-1.33,4.95,0.06
				c4.98,5.1,9.74,10.55,14.14,16.21c1.19,1.53,0.91,3.73-0.62,4.91C340.86,96.32,340.1,96.56,339.35,96.56z M95.29,66.42
				c-1.02,0-2.03-0.44-2.72-1.3c-1.22-1.5-0.99-3.71,0.51-4.92c5.59-4.53,11.48-8.75,17.51-12.56c1.63-1.03,3.8-0.54,4.83,1.09
				c1.03,1.64,0.54,3.8-1.09,4.83c-5.8,3.65-11.46,7.71-16.83,12.07C96.85,66.17,96.07,66.42,95.29,66.42z M309.87,66.41
				c-0.77,0-1.55-0.26-2.2-0.78c-5.37-4.35-11.03-8.41-16.83-12.07c-1.64-1.03-2.13-3.19-1.09-4.83c1.03-1.64,3.2-2.12,4.83-1.09
				c6.03,3.8,11.92,8.02,17.5,12.55c1.5,1.22,1.73,3.42,0.51,4.92C311.9,65.97,310.88,66.41,309.87,66.41z M130.98,43.95
				c-1.31,0-2.57-0.74-3.17-2.01c-0.82-1.75-0.07-3.83,1.67-4.66c6.5-3.06,13.24-5.74,20.03-7.96c1.84-0.6,3.81,0.4,4.41,2.24
				c0.6,1.84-0.4,3.81-2.24,4.41c-6.51,2.13-12.98,4.7-19.21,7.63C131.99,43.85,131.48,43.95,130.98,43.95z M274.18,43.95
				c-0.5,0-1.01-0.11-1.49-0.33c-6.24-2.94-12.71-5.51-19.23-7.64c-1.84-0.6-2.84-2.58-2.24-4.41c0.6-1.84,2.58-2.84,4.41-2.24
				c6.79,2.22,13.54,4.9,20.04,7.96c1.75,0.82,2.5,2.91,1.67,4.66C276.75,43.21,275.49,43.95,274.18,43.95z M171.05,30.88
				c-1.65,0-3.11-1.17-3.43-2.84c-0.36-1.9,0.88-3.73,2.78-4.1c7.03-1.35,14.23-2.26,21.39-2.71c1.9-0.12,3.59,1.34,3.71,3.27
				c0.12,1.93-1.34,3.59-3.27,3.71c-6.87,0.43-13.77,1.3-20.51,2.6C171.49,30.86,171.26,30.88,171.05,30.88z M234.09,30.87
				c-0.22,0-0.44-0.02-0.66-0.06c-6.75-1.29-13.65-2.16-20.52-2.59c-1.93-0.12-3.4-1.78-3.27-3.71s1.78-3.4,3.71-3.27
				c7.16,0.45,14.36,1.36,21.39,2.7c1.9,0.36,3.14,2.2,2.78,4.09C237.2,29.71,235.73,30.87,234.09,30.87z"/>
		</g>
		<g>
			<path class="st1" d="M379.92,204.27c-1.83,0-3.36-1.42-3.49-3.27c-0.24-3.58-0.58-7.2-1.02-10.77c-0.23-1.92,1.13-3.66,3.05-3.9
				c1.93-0.23,3.66,1.13,3.9,3.05c0.45,3.69,0.8,7.44,1.05,11.14c0.13,1.93-1.33,3.6-3.26,3.73
				C380.07,204.27,380,204.27,379.92,204.27z"/>
		</g>
	</g>
	<g>
		<circle class="st6" cx="25.25" cy="24.4" r="20.35"/>
		<path class="st1" d="M25.25,48.25C12.1,48.25,1.4,37.55,1.4,24.4S12.1,0.55,25.25,0.55S49.1,11.25,49.1,24.4
			S38.4,48.25,25.25,48.25z M25.25,7.55C15.96,7.55,8.4,15.11,8.4,24.4s7.56,16.85,16.85,16.85S42.1,33.69,42.1,24.4
			S34.54,7.55,25.25,7.55z"/>
	</g>
	<g>
		<circle class="st6" cx="379.92" cy="24.4" r="20.35"/>
		<path class="st1" d="M379.92,48.25c-13.15,0-23.85-10.7-23.85-23.85s10.7-23.85,23.85-23.85s23.85,10.7,23.85,23.85
			S393.07,48.25,379.92,48.25z M379.92,7.55c-9.29,0-16.85,7.56-16.85,16.85s7.56,16.85,16.85,16.85s16.85-7.56,16.85-16.85
			S389.21,7.55,379.92,7.55z"/>
	</g>
	<g>
		<path class="st1" d="M359.57,27.9H45.6c-1.93,0-3.5-1.57-3.5-3.5s1.57-3.5,3.5-3.5h313.97c1.93,0,3.5,1.57,3.5,3.5
			S361.5,27.9,359.57,27.9z"/>
	</g>
	<g>
		
			<rect x="181.69" y="3.5" transform="matrix(-1 -4.484691e-11 4.484691e-11 -1 405.1688 48.7971)" class="st6" width="41.8" height="41.8"/>
		<path class="st1" d="M223.48,48.8h-41.8c-1.93,0-3.5-1.57-3.5-3.5V3.5c0-1.93,1.57-3.5,3.5-3.5h41.8c1.93,0,3.5,1.57,3.5,3.5v41.8
			C226.98,47.23,225.42,48.8,223.48,48.8z M185.19,41.8h34.8V7h-34.8V41.8z"/>
	</g>
</g>
</svg>
