<?xml version="1.0" encoding="utf-8"?>
<!-- Generator: Adobe Illustrator 24.0.0, SVG Export Plug-In . SVG Version: 6.00 Build 0)  -->
<svg version="1.1" id="Layer_1" xmlns="http://www.w3.org/2000/svg" xmlns:xlink="http://www.w3.org/1999/xlink" x="0px" y="0px"
	 viewBox="0 0 292.14 391.39" style="enable-background:new 0 0 292.14 391.39;" xml:space="preserve">
<style type="text/css">
	.st0{fill:#FFCA28;}
	.st1{fill:#37474F;}
	.st2{fill:#BDBDBD;}
	.st3{fill:#EEEEEE;}
	.st4{fill:#26C6DA;}
	.st5{fill:#FF7043;}
</style>
<g>
	<g>
		<rect x="3.5" y="51.22" class="st0" width="285.14" height="336.66"/>
		<path class="st1" d="M288.64,391.39H3.5c-1.93,0-3.5-1.57-3.5-3.5V51.22c0-1.93,1.57-3.5,3.5-3.5h285.14c1.93,0,3.5,1.57,3.5,3.5
			v336.66C292.14,389.82,290.58,391.39,288.64,391.39z M7,384.39h278.14V54.72H7V384.39z"/>
	</g>
	<g>
		<circle class="st2" cx="146.07" cy="37.05" r="33.55"/>
		<path class="st1" d="M146.07,74.09c-20.43,0-37.05-16.62-37.05-37.05S125.64,0,146.07,0c20.43,0,37.05,16.62,37.05,37.05
			S166.5,74.09,146.07,74.09z M146.07,7c-16.57,0-30.05,13.48-30.05,30.05s13.48,30.05,30.05,30.05c16.57,0,30.05-13.48,30.05-30.05
			S162.64,7,146.07,7z"/>
	</g>
	<g>
		<path class="st3" d="M244.58,362.73H47.56c-9.12,0-16.51-7.39-16.51-16.51V92.89c0-9.12,7.39-16.51,16.51-16.51h197.02
			c9.12,0,16.51,7.39,16.51,16.51v253.33C261.09,355.34,253.7,362.73,244.58,362.73z"/>
		<path class="st1" d="M244.58,366.23H47.56c-11.03,0-20.01-8.97-20.01-20.01V92.89c0-11.03,8.97-20.01,20.01-20.01h197.02
			c11.03,0,20.01,8.97,20.01,20.01v253.33C264.59,357.25,255.61,366.23,244.58,366.23z M47.56,79.88c-7.17,0-13.01,5.83-13.01,13.01
			v253.33c0,7.17,5.83,13.01,13.01,13.01h197.02c7.17,0,13.01-5.83,13.01-13.01V92.89c0-7.17-5.83-13.01-13.01-13.01H47.56z"/>
	</g>
	<g>
		<g>
			<path class="st4" d="M84.87,182.03c-1.31,0-2.57-0.44-3.53-1.25l-18.17-15.23c-2.06-1.73-2.15-4.61-0.2-6.43
				c1.95-1.82,5.2-1.9,7.26-0.18l13.52,11.33l19.57-28.94c1.46-2.16,4.61-2.86,7.05-1.56c2.43,1.29,3.22,4.09,1.77,6.24l-22.86,33.8
				c-0.8,1.18-2.16,1.98-3.71,2.17C85.33,182.02,85.1,182.03,84.87,182.03z"/>
			<path class="st1" d="M84.87,185.53c-2.14,0-4.19-0.73-5.78-2.07l-18.17-15.23c-1.75-1.47-2.79-3.58-2.86-5.78
				c-0.06-2.19,0.86-4.34,2.51-5.89c3.25-3.04,8.48-3.18,11.9-0.3l10.55,8.84l17.4-25.72c2.47-3.65,7.56-4.83,11.59-2.7
				c2.08,1.11,3.59,2.99,4.13,5.17c0.53,2.12,0.13,4.29-1.11,6.12l-22.87,33.8c-1.37,2.03-3.63,3.37-6.19,3.68
				C85.63,185.51,85.25,185.53,84.87,185.53z M66.7,161.2c-0.5,0-1,0.16-1.34,0.48c-0.14,0.13-0.3,0.34-0.3,0.59
				c0.01,0.26,0.2,0.48,0.35,0.61l18.17,15.23c0.38,0.32,0.97,0.48,1.55,0.41c0.54-0.07,1.01-0.32,1.25-0.66l22.86-33.8
				c0.12-0.18,0.16-0.34,0.11-0.51c-0.06-0.26-0.29-0.5-0.62-0.68c-0.93-0.49-2.09-0.18-2.51,0.43l-19.57,28.94
				c-0.56,0.82-1.43,1.37-2.41,1.51c-0.98,0.13-1.97-0.15-2.73-0.78l-13.52-11.33C67.64,161.34,67.17,161.2,66.7,161.2z"/>
		</g>
	</g>
	<g>
		<g>
			<path class="st4" d="M84.87,244.7c-1.31,0-2.57-0.44-3.53-1.25l-18.17-15.23c-2.06-1.73-2.15-4.61-0.2-6.43
				c1.95-1.83,5.2-1.91,7.26-0.18l13.52,11.33l19.57-28.94c1.46-2.16,4.62-2.86,7.05-1.56c2.43,1.29,3.22,4.09,1.77,6.24
				l-22.86,33.8c-0.8,1.18-2.16,1.98-3.71,2.17C85.33,244.69,85.1,244.7,84.87,244.7z"/>
			<path class="st1" d="M84.87,248.2c-2.14,0-4.19-0.73-5.78-2.06L60.92,230.9c-1.75-1.47-2.8-3.58-2.86-5.78
				c-0.06-2.19,0.86-4.34,2.51-5.89c3.25-3.04,8.48-3.17,11.9-0.3l10.55,8.84l17.4-25.72c2.47-3.65,7.56-4.83,11.59-2.7
				c2.09,1.11,3.59,2.99,4.13,5.17c0.53,2.11,0.13,4.29-1.11,6.12l-22.87,33.8c-1.37,2.03-3.63,3.37-6.18,3.68
				C85.62,248.18,85.24,248.2,84.87,248.2z M66.7,223.86c-0.5,0-1,0.16-1.34,0.48c-0.14,0.13-0.3,0.34-0.3,0.59
				c0.01,0.21,0.13,0.42,0.36,0.61l18.17,15.23c0.38,0.32,0.97,0.49,1.56,0.41c0.53-0.06,1-0.32,1.23-0.66l22.86-33.8
				c0.12-0.18,0.16-0.34,0.11-0.51c-0.06-0.26-0.29-0.5-0.62-0.68c-0.92-0.49-2.1-0.17-2.51,0.44l-19.57,28.94
				c-0.56,0.82-1.43,1.37-2.41,1.5c-0.98,0.14-1.97-0.15-2.73-0.78l-13.52-11.33C67.64,224.01,67.17,223.86,66.7,223.86z"/>
		</g>
	</g>
	<g>
		<g>
			<path class="st4" d="M84.87,307.37c-1.31,0-2.57-0.44-3.53-1.25l-18.17-15.23c-2.06-1.73-2.15-4.61-0.2-6.43
				c1.95-1.83,5.2-1.91,7.26-0.18l13.52,11.33l19.57-28.94c1.46-2.16,4.62-2.85,7.05-1.56c2.43,1.29,3.22,4.09,1.77,6.24
				l-22.86,33.8c-0.8,1.18-2.16,1.98-3.71,2.17C85.33,307.35,85.1,307.37,84.87,307.37z"/>
			<path class="st1" d="M84.87,310.87c-2.14,0-4.19-0.73-5.78-2.07l-18.17-15.23c-1.75-1.47-2.8-3.58-2.86-5.78
				c-0.06-2.19,0.86-4.34,2.51-5.89c3.25-3.04,8.48-3.17,11.9-0.3l10.55,8.84l17.4-25.73c2.47-3.65,7.56-4.83,11.59-2.7
				c2.08,1.11,3.59,2.99,4.13,5.17c0.53,2.11,0.13,4.29-1.11,6.12l-22.87,33.8c-1.37,2.03-3.63,3.37-6.19,3.68
				C85.63,310.84,85.25,310.87,84.87,310.87z M66.7,286.53c-0.5,0-1,0.16-1.34,0.48c-0.14,0.13-0.3,0.34-0.3,0.59
				c0.01,0.21,0.13,0.42,0.35,0.61l18.17,15.23c0.38,0.32,0.97,0.48,1.55,0.41c0.54-0.07,1.01-0.32,1.25-0.66l22.86-33.8
				c0.12-0.18,0.16-0.34,0.11-0.51c-0.06-0.26-0.29-0.5-0.62-0.68c-0.92-0.49-2.1-0.17-2.51,0.43l-19.57,28.94
				c-0.56,0.82-1.43,1.37-2.41,1.5c-0.98,0.14-1.97-0.15-2.73-0.78l-13.52-11.33C67.64,286.67,67.17,286.53,66.7,286.53z"/>
		</g>
	</g>
	<g>
		<path class="st4" d="M217.23,91.96H74.92c-1.4,0-2.53-1.13-2.53-2.53V58.98c0-12.12,9.82-21.94,21.94-21.94h103.49
			c12.12,0,21.94,9.82,21.94,21.94v30.45C219.75,90.83,218.62,91.96,217.23,91.96z"/>
		<path class="st1" d="M217.23,95.46H74.92c-3.32,0-6.03-2.7-6.03-6.03V58.98c0-14.03,11.41-25.44,25.44-25.44h103.49
			c14.03,0,25.44,11.41,25.44,25.44v30.45C223.25,92.75,220.55,95.46,217.23,95.46z M75.89,88.46h140.36V58.98
			c0-10.17-8.27-18.44-18.44-18.44H94.33c-10.17,0-18.44,8.27-18.44,18.44V88.46z"/>
	</g>
	<g>
		<rect x="132.89" y="136.89" class="st5" width="91.95" height="22.16"/>
		<path class="st1" d="M224.85,162.55h-91.95c-1.93,0-3.5-1.57-3.5-3.5v-22.16c0-1.93,1.57-3.5,3.5-3.5h91.95
			c1.93,0,3.5,1.57,3.5,3.5v22.16C228.35,160.98,226.78,162.55,224.85,162.55z M136.39,155.55h84.95v-15.16h-84.95V155.55z"/>
	</g>
	<g>
		<rect x="132.89" y="208.47" class="st5" width="91.95" height="22.16"/>
		<path class="st1" d="M224.85,234.14h-91.95c-1.93,0-3.5-1.57-3.5-3.5v-22.17c0-1.93,1.57-3.5,3.5-3.5h91.95
			c1.93,0,3.5,1.57,3.5,3.5v22.17C228.35,232.57,226.78,234.14,224.85,234.14z M136.39,227.14h84.95v-15.17h-84.95V227.14z"/>
	</g>
	<g>
		<rect x="132.89" y="280.06" class="st5" width="91.95" height="22.16"/>
		<path class="st1" d="M224.85,305.72h-91.95c-1.93,0-3.5-1.57-3.5-3.5v-22.16c0-1.93,1.57-3.5,3.5-3.5h91.95
			c1.93,0,3.5,1.57,3.5,3.5v22.16C228.35,304.15,226.78,305.72,224.85,305.72z M136.39,298.72h84.95v-15.16h-84.95V298.72z"/>
	</g>
	<g>
		<circle class="st5" cx="146.07" cy="37.05" r="21.6"/>
		<path class="st1" d="M146.07,62.14c-13.84,0-25.1-11.26-25.1-25.1c0-13.84,11.26-25.1,25.1-25.1c13.84,0,25.1,11.26,25.1,25.1
			C171.17,50.89,159.91,62.14,146.07,62.14z M146.07,18.95c-9.98,0-18.1,8.12-18.1,18.1c0,9.98,8.12,18.1,18.1,18.1
			s18.1-8.12,18.1-18.1C164.17,27.07,156.05,18.95,146.07,18.95z"/>
	</g>
	<g>
		<path class="st2" d="M160,346.04H66.87c-1.93,0-3.5-1.57-3.5-3.5s1.57-3.5,3.5-3.5H160c1.93,0,3.5,1.57,3.5,3.5
			S161.93,346.04,160,346.04z"/>
	</g>
</g>
</svg>
